REM DIRINDEX 1\5,1\2\6,1\2\7,1\3\8,1\3\9,1\4\10,1\4\11,1\4\12
REM DIRNAME cjc026,folder01,folder02,folder03,folder04,folder05,folder06,folder07,folder08,folder09,folder10,folder11
TITLE ""
FILE "EJE_DB3000_5th_6C_37.mp3" MP3
  TRACK 01 AUDIO
    TITLE "0:"
    INDEX 01 00:00:00
  TRACK 02 AUDIO
    TITLE "10:cjc026_11580"
    INDEX 01 00:00:08
  TRACK 03 AUDIO
    TITLE "0:"
    INDEX 01 00:01:22
  TRACK 04 AUDIO
    TITLE "11:cjc026_11581"
    INDEX 01 00:01:57
  TRACK 05 AUDIO
    TITLE "0:"
    INDEX 01 00:03:15
  TRACK 06 AUDIO
    TITLE "12:cjc026_11582"
    INDEX 01 00:03:50
  TRACK 07 AUDIO
    TITLE "0:"
    INDEX 01 00:04:64
  TRACK 08 AUDIO
    TITLE "10:cjc026_11583"
    INDEX 01 00:05:21
  TRACK 09 AUDIO
    TITLE "0:"
    INDEX 01 00:06:33
  TRACK 10 AUDIO
    TITLE "11:cjc026_11584"
    INDEX 01 00:06:71
  TRACK 11 AUDIO
    TITLE "0:"
    INDEX 01 00:08:26
  TRACK 12 AUDIO
    TITLE "12:cjc026_11585"
    INDEX 01 00:08:61
  TRACK 13 AUDIO
    TITLE "0:"
    INDEX 01 00:09:72
  TRACK 14 AUDIO
    TITLE "10:cjc026_11586"
    INDEX 01 00:10:33
  TRACK 15 AUDIO
    TITLE "0:"
    INDEX 01 00:11:49
  TRACK 16 AUDIO
    TITLE "11:cjc026_11587"
    INDEX 01 00:12:09
  TRACK 17 AUDIO
    TITLE "0:"
    INDEX 01 00:13:32
  TRACK 18 AUDIO
    TITLE "12:cjc026_11588"
    INDEX 01 00:13:67
  TRACK 19 AUDIO
    TITLE "0:"
    INDEX 01 00:15:06
  TRACK 20 AUDIO
    TITLE "10:cjc026_11589"
    INDEX 01 00:15:44
  TRACK 21 AUDIO
    TITLE "0:"
    INDEX 01 00:16:63
  TRACK 22 AUDIO
    TITLE "11:cjc026_11590"
    INDEX 01 00:17:23
  TRACK 23 AUDIO
    TITLE "0:"
    INDEX 01 00:18:59
  TRACK 24 AUDIO
    TITLE "12:cjc026_11591"
    INDEX 01 00:19:22
  TRACK 25 AUDIO
    TITLE "0:"
    INDEX 01 00:20:41
  TRACK 26 AUDIO
    TITLE "10:cjc026_11592"
    INDEX 01 00:21:01
  TRACK 27 AUDIO
    TITLE "0:"
    INDEX 01 00:22:21
  TRACK 28 AUDIO
    TITLE "11:cjc026_11593"
    INDEX 01 00:22:56
  TRACK 29 AUDIO
    TITLE "0:"
    INDEX 01 00:24:03
  TRACK 30 AUDIO
    TITLE "12:cjc026_11594"
    INDEX 01 00:24:38
  TRACK 31 AUDIO
    TITLE "0:"
    INDEX 01 00:25:58
  TRACK 32 AUDIO
    TITLE "10:cjc026_11595"
    INDEX 01 00:26:15
  TRACK 33 AUDIO
    TITLE "0:"
    INDEX 01 00:27:21
  TRACK 34 AUDIO
    TITLE "11:cjc026_11596"
    INDEX 01 00:27:59
  TRACK 35 AUDIO
    TITLE "0:"
    INDEX 01 00:28:65
  TRACK 36 AUDIO
    TITLE "12:cjc026_11597"
    INDEX 01 00:29:22
  TRACK 37 AUDIO
    TITLE "0:"
    INDEX 01 00:30:28
  TRACK 38 AUDIO
    TITLE "10:cjc026_11598"
    INDEX 01 00:30:63
  TRACK 39 AUDIO
    TITLE "0:"
    INDEX 01 00:32:11
  TRACK 40 AUDIO
    TITLE "11:cjc026_11599"
    INDEX 01 00:32:46
  TRACK 41 AUDIO
    TITLE "0:"
    INDEX 01 00:34:17
  TRACK 42 AUDIO
    TITLE "12:cjc026_11600"
    INDEX 01 00:34:52
  TRACK 43 AUDIO
    TITLE "0:"
    INDEX 01 00:36:00
  TRACK 44 AUDIO
    TITLE "10:cjc026_11601"
    INDEX 01 00:36:35
  TRACK 45 AUDIO
    TITLE "0:"
    INDEX 01 00:37:46
  TRACK 46 AUDIO
    TITLE "11:cjc026_11602"
    INDEX 01 00:38:06
  TRACK 47 AUDIO
    TITLE "0:"
    INDEX 01 00:39:55
  TRACK 48 AUDIO
    TITLE "12:cjc026_11603"
    INDEX 01 00:40:15
  TRACK 49 AUDIO
    TITLE "0:"
    INDEX 01 00:41:27
  TRACK 50 AUDIO
    TITLE "10:cjc026_11604"
    INDEX 01 00:41:65
  TRACK 51 AUDIO
    TITLE "0:"
    INDEX 01 00:43:15
  TRACK 52 AUDIO
    TITLE "11:cjc026_11605"
    INDEX 01 00:43:50
  TRACK 53 AUDIO
    TITLE "0:"
    INDEX 01 00:44:69
  TRACK 54 AUDIO
    TITLE "12:cjc026_11606"
    INDEX 01 00:45:29
  TRACK 55 AUDIO
    TITLE "0:"
    INDEX 01 00:46:54
  TRACK 56 AUDIO
    TITLE "10:cjc026_11607"
    INDEX 01 00:47:14
  TRACK 57 AUDIO
    TITLE "0:"
    INDEX 01 00:48:23
  TRACK 58 AUDIO
    TITLE "11:cjc026_11608"
    INDEX 01 00:48:58
  TRACK 59 AUDIO
    TITLE "0:"
    INDEX 01 00:50:16
  TRACK 60 AUDIO
    TITLE "12:cjc026_11609"
    INDEX 01 00:50:54
  TRACK 61 AUDIO
    TITLE "0:"
    INDEX 01 00:51:63
  TRACK 62 AUDIO
    TITLE "10:cjc026_11610"
    INDEX 01 00:52:23
  TRACK 63 AUDIO
    TITLE "0:"
    INDEX 01 00:53:48
  TRACK 64 AUDIO
    TITLE "11:cjc026_11611"
    INDEX 01 00:54:08
  TRACK 65 AUDIO
    TITLE "0:"
    INDEX 01 00:55:51
  TRACK 66 AUDIO
    TITLE "12:cjc026_11612"
    INDEX 01 00:56:14
  TRACK 67 AUDIO
    TITLE "0:"
    INDEX 01 00:57:36
  TRACK 68 AUDIO
    TITLE "10:cjc026_11613"
    INDEX 01 00:57:74
  TRACK 69 AUDIO
    TITLE "0:"
    INDEX 01 00:59:27
  TRACK 70 AUDIO
    TITLE "11:cjc026_11614"
    INDEX 01 00:59:62
  TRACK 71 AUDIO
    TITLE "0:"
    INDEX 01 01:01:36
  TRACK 72 AUDIO
    TITLE "12:cjc026_11615"
    INDEX 01 01:01:71
  TRACK 73 AUDIO
    TITLE "0:"
    INDEX 01 01:03:24
  TRACK 74 AUDIO
    TITLE "10:cjc026_11616"
    INDEX 01 01:03:62
  TRACK 75 AUDIO
    TITLE "0:"
    INDEX 01 01:05:28
  TRACK 76 AUDIO
    TITLE "11:cjc026_11617"
    INDEX 01 01:05:63
  TRACK 77 AUDIO
    TITLE "0:"
    INDEX 01 01:07:37
  TRACK 78 AUDIO
    TITLE "12:cjc026_11618"
    INDEX 01 01:07:67
  TRACK 79 AUDIO
    TITLE "0:"
    INDEX 01 01:09:33
